# xmcd CD database file
#
# Track frame offsets:
#	150
#	24037
#	41673
#	59169
#	76967
#	97318
#	117963
#	143020
#	164085
#	182604
#	205909
#	223981
#	241639
#	263881
#
# Disc length: 3787 seconds
#
# Revision: 0
# Processed by: cddbd v1.4PL0 Copyright (c) Steve Scherf et al.
# Submitted via: CDex 1.50Beta7
#
DISCID=cb0ec90e
DTITLE=Uiyana Bandha - III Milênio - 2001
DYEAR=2001
DGENRE=New Age
TTITLE0=Lágrimas de Galadriel
TTITLE1=Harmonia
TTITLE2=Vôo do Vale
TTITLE3=Terra à Vista
TTITLE4=Elo Singelo
TTITLE5=Colheita dos Girassóis
TTITLE6=Cabeceiras Sagradas
TTITLE7=Linda Divindade
TTITLE8=Orla Celeste
TTITLE9=Avatar
TTITLE10=Púrvata
TTITLE11=Ilumina
TTITLE12=Ascenção
TTITLE13=Canto de União
EXTD=YEAR: 2001
EXTT0=
EXTT1=
EXTT2=
EXTT3=
EXTT4=
EXTT5=
EXTT6=
EXTT7=
EXTT8=
EXTT9=
EXTT10=
EXTT11=
EXTT12=
EXTT13=
PLAYORDER=
